<svg xmlns="http://www.w3.org/2000/svg" xmlns:xlink="http://www.w3.org/1999/xlink" width="1154.656" height="1020.437" viewBox="0 0 1154.656 1020.437">
  <defs>
    <filter id="Path_14" x="0" y="0" width="1140.609" height="1020.437" filterUnits="userSpaceOnUse">
      <feOffset dx="9" dy="9" input="SourceAlpha"/>
      <feGaussianBlur stdDeviation="3" result="blur"/>
      <feFlood flood-opacity="0.161"/>
      <feComposite operator="in" in2="blur"/>
      <feComposite in="SourceGraphic"/>
    </filter>
  </defs>
  <g id="Group_93" data-name="Group 93" transform="translate(-849.176 -159.545)">
    <g transform="matrix(1, 0, 0, 1, 849.18, 159.54)" filter="url(#Path_14)">
      <path id="Path_14-2" data-name="Path 14" d="M561.3,0c310,0,561.3,224.4,561.3,501.218s-251.3,501.218-561.3,501.218S0,778.033,0,501.218,251.3,0,561.3,0Z" fill="#ff2ea1" opacity="0.771"/>
    </g>
    <text id="So_soft_and_fluffy_" data-name="So soft and fluffy…" transform="translate(1250.846 527.768)" fill="#fff" font-size="42" font-family="CocolaRegular, Cocola"><tspan x="0" y="0">So soft and fluffy</tspan><tspan y="0" font-family="Helvetica">…</tspan></text>
    <text id="GREEN" transform="translate(1116.846 672.381)" fill="#fff" stroke="#3aa232" stroke-width="4" stroke-dasharray="0 2" font-size="205" font-family="SoftMarshmallow, Soft Marshmallow"><tspan x="0" y="0">GREEN</tspan></text>
    <text id="We_are_changing_for_you_" data-name="We are changing for you " transform="translate(1095.609 748.861)" fill="#fff" font-size="50" font-family="HelveticaNeue, Helvetica Neue"><tspan x="0" y="0">We are changing for you </tspan></text>
    <path id="Path_15" data-name="Path 15" d="M285.587,76.609c157.59,0,285.341-36.1,285.341,0S443.177,184.855,285.587,184.855.7,89.428.7,53.324,128,76.609,285.587,76.609Z" transform="matrix(-0.454, -0.891, 0.891, -0.454, 1829.797, 824.794)" fill="#f2fef4" opacity="0.884"/>
    <path id="now" d="M15.079,78.813,30.85,115.968l12.352-5.3L32.813,86.2q-.989-2.331-.74-3.65t1.9-2.017q1.645-.7,2.767.04t2.11,3.066l10.38,24.454,12.288-5.268-11.842-27.9q-1.277-3.009-2.841-4.605t-3.356-2.211q-1.793-.614-3.726-.322t-3.988,1.16q-6.581,2.779-6.656,9.279l-.137.058-1.921-4.525Zm54.662-1.289q-1.477-3.479-2.3-5.788t-.962-3.778q-.143-1.469.3-2.22t1.461-1.182q1.018-.431,1.9-.242t1.8,1.327q.923,1.137,2.013,3.329t2.566,5.668q1.475,3.476,2.28,5.749t.982,3.727q.177,1.454-.3,2.221T78,87.536q-1.017.435-1.864.233t-1.8-1.324q-.957-1.122-2.034-3.282T69.741,77.524Zm18.964-8.07Q87,65.44,85.075,62.122t-4.609-5.313q-2.683-2-6.449-2.212t-9.131,2.049q-5.166,2.182-7.553,5.162t-2.864,6.407q-.476,3.426.492,7.128t2.506,7.325q1.712,4.032,3.648,7.363t4.619,5.291q2.681,1.96,6.431,2.089t9.1-2.169q5.147-2.207,7.545-5.127t2.876-6.3q.48-3.381-.487-7.068T88.705,69.454Zm-6.474-19.01,23.032,33.625,13.7-5.874-7.335-27.541.134-.057,14.7,24.383,13.62-5.838L131.9,29.463l-11.615,4.907,8.166,27.6-.134.057L113.589,37.2,100.7,42.641l7.643,27.912-.134.057L93.973,45.484Z" transform="translate(1051.956 429.173)" fill="#fff"/>
    <path id="Ellipse_124" data-name="Ellipse 124" d="M15.733,31.589a13.323,13.323,0,0,1,6.324-7.312,30.2,30.2,0,0,1,11.73-3.511,59.159,59.159,0,0,1,15.1.415A81.319,81.319,0,0,1,65.427,25.5a78.377,78.377,0,0,1,14.806,7.336A54.137,54.137,0,0,1,90.9,41.608a27.922,27.922,0,0,1,5.874,9.186,13.291,13.291,0,0,1,.373,8.7,12.9,12.9,0,0,1-5.384,6.724,26.656,26.656,0,0,1-10.068,3.723,52.447,52.447,0,0,1-13.657.44,77.408,77.408,0,0,1-16.128-3.266,81.909,81.909,0,0,1-15.745-6.749,60.792,60.792,0,0,1-12.319-8.983,31.582,31.582,0,0,1-7.326-10.042A13.762,13.762,0,0,1,15.733,31.589Z" transform="translate(1530.315 204.393)" fill="#fff" opacity="0.969"/>
  </g>
</svg>
